<svg xmlns="http://www.w3.org/2000/svg" fill="none" overflow="visible" preserveAspectRatio="none" style="display:block" viewBox="0 0 135 41.672"><path fill="var(--fill-0, #d79338)" d="M28.768 0c4.516 0 6.775 0 8.5.879a8.07 8.07 0 0 1 3.525 3.525c.879 1.726.879 3.984.879 8.501v15.863c0 4.516 0 6.775-.879 8.5a8.07 8.07 0 0 1-3.524 3.525c-1.726.879-3.985.879-8.501.879H12.905c-4.517 0-6.775 0-8.5-.879a8.07 8.07 0 0 1-3.526-3.524C-.001 35.543 0 33.284 0 28.768V12.905c0-4.516 0-6.775.879-8.5A8.07 8.07 0 0 1 4.404.878C6.13 0 8.39 0 12.905 0zM14.333 18.226q-1.057 0-2.072.263-.918.24-1.846.58a.3.3 0 0 0-.198.287v11.383c0 .223.23.373.44.296q.692-.255 1.52-.391 1.098-.181 2.156-.181 1.49 0 2.9.348 1.178.29 2.324.824a.316.316 0 0 0 .45-.282v-7.248a.3.3 0 0 0-.104-.23q-3.238-2.877-4.954-5.394l-.078-.115a.3.3 0 0 0-.242-.136 10 10 0 0 0-.296-.004m12.304.004a.3.3 0 0 0-.243.136l-.078.115q-1.714 2.516-4.954 5.394a.3.3 0 0 0-.103.23v7.249c0 .228.242.377.45.28q1.145-.533 2.323-.823 1.41-.348 2.9-.348 1.058 0 2.156.18a8.3 8.3 0 0 1 1.521.392c.21.076.44-.073.44-.296V19.355a.305.305 0 0 0-.198-.286 20 20 0 0 0-1.846-.58 8.2 8.2 0 0 0-2.368-.26M20.645 7.797q-2.434 0-4.285 1.706t-1.85 4.582q0 1.917 1.524 4.169 1.525 2.253 4.611 4.879 3.087-2.626 4.61-4.88 1.525-2.25 1.524-4.168 0-2.876-1.85-4.582-1.848-1.706-4.283-1.706m-.078 4.032a2.017 2.017 0 1 1 0 4.034 2.017 2.017 0 0 1 0-4.034"/><g fill="var(--fill-0, #2b619e)"><path d="M51.301 20.402q-1.905 0-3.293-.804-1.377-.812-2.12-2.295-.743-1.49-.743-3.509 0-1.984.742-3.484.752-1.506 2.097-2.344 1.345-.846 3.16-.846 1.173 0 2.212.385a5 5 0 0 1 1.849 1.172q.81.795 1.27 2.027.464 1.223.463 2.914v.93h-10.39v-2.043h7.526q-.008-.871-.371-1.55a2.7 2.7 0 0 0-1.015-1.08q-.645-.394-1.502-.394-.915 0-1.61.453a3.1 3.1 0 0 0-1.08 1.172 3.4 3.4 0 0 0-.389 1.583v1.784q0 1.122.405 1.926.405.795 1.13 1.223.727.418 1.7.418.653 0 1.18-.184.529-.192.917-.561t.586-.913l2.79.318a4.4 4.4 0 0 1-1.008 1.96q-.734.83-1.881 1.29-1.148.452-2.625.452m9.293-7.788v7.537h-2.988V7.287h2.856v2.186h.148a3.67 3.67 0 0 1 1.395-1.717q.966-.636 2.385-.636 1.313 0 2.286.57.982.569 1.519 1.649.545 1.08.536 2.621v8.19h-2.987v-7.72q0-1.29-.66-2.019-.653-.729-1.808-.729-.784 0-1.395.352a2.4 2.4 0 0 0-.949.997q-.338.653-.338 1.582m14.845 7.789q-1.9 0-3.26-.846-1.355-.846-2.088-2.336-.727-1.5-.727-3.45 0-1.96.743-3.46.743-1.506 2.096-2.344 1.362-.846 3.219-.846 1.544 0 2.732.578 1.196.57 1.906 1.616.71 1.038.809 2.429h-2.856a2.8 2.8 0 0 0-.825-1.55q-.644-.627-1.725-.628-.915 0-1.61.503-.692.494-1.08 1.423-.38.93-.38 2.228 0 1.315.38 2.261.38.938 1.064 1.449.694.502 1.626.502.66 0 1.18-.25.53-.26.883-.746.356-.486.487-1.181h2.856q-.108 1.365-.792 2.42a4.7 4.7 0 0 1-1.865 1.642q-1.181.585-2.773.586m11.553 0q-1.856 0-3.218-.83-1.362-.828-2.113-2.319-.743-1.49-.743-3.484t.743-3.492q.75-1.5 2.113-2.328 1.36-.83 3.218-.83t3.219.83q1.362.83 2.104 2.328.751 1.5.751 3.492 0 1.993-.75 3.484-.743 1.49-2.105 2.32-1.361.828-3.219.829m.017-2.429q1.007 0 1.683-.56.677-.57 1.007-1.525.339-.954.339-2.127 0-1.181-.339-2.136-.33-.963-1.007-1.532t-1.683-.57q-1.032 0-1.717.57-.677.57-1.015 1.532-.33.956-.33 2.136 0 1.172.33 2.127.339.954 1.015 1.524.685.561 1.717.561m9.721-5.359v7.537h-2.987V7.287h2.855v2.186h.149a3.67 3.67 0 0 1 1.395-1.717q.965-.636 2.385-.636 1.313 0 2.286.57.983.569 1.518 1.649.544 1.08.537 2.621v8.19h-2.988v-7.72q0-1.29-.66-2.019-.652-.729-1.807-.729-.784 0-1.395.352a2.4 2.4 0 0 0-.95.997q-.338.653-.338 1.582m15.646-5.326v2.345h-7.288V7.287zm-5.489-3.082h2.988v12.077q0 .61.181.938a1 1 0 0 0 .496.435q.305.117.676.117.28 0 .512-.042.24-.041.363-.075l.504 2.37a7 7 0 0 1-.685.184q-.438.1-1.073.117-1.123.034-2.022-.343a3.15 3.15 0 0 1-1.428-1.189q-.52-.804-.512-2.01zm6.128 15.945V7.288h2.897v2.144h.132q.347-1.113 1.188-1.717a3.24 3.24 0 0 1 1.94-.611q.248 0 .552.025.315.016.52.059v2.789a3 3 0 0 0-.602-.118 5.5 5.5 0 0 0-.784-.058q-.817 0-1.469.36a2.6 2.6 0 0 0-1.015.98q-.372.627-.372 1.448v7.563z"/><path d="M125.46 20.402q-1.907 0-3.293-.804-1.379-.812-2.121-2.295-.743-1.49-.743-3.509 0-1.984.743-3.484.752-1.506 2.096-2.344 1.346-.846 3.161-.846 1.172 0 2.212.385a5 5 0 0 1 1.849 1.172q.808.795 1.271 2.027.462 1.223.462 2.914v.93h-10.391v-2.043h7.527q-.008-.871-.371-1.55a2.73 2.73 0 0 0-1.016-1.08q-.643-.394-1.502-.394-.916 0-1.609.453a3.1 3.1 0 0 0-1.081 1.172 3.4 3.4 0 0 0-.388 1.583v1.784q0 1.122.405 1.926.404.795 1.13 1.223.726.418 1.7.418.652 0 1.18-.184.53-.192.916-.561.388-.369.586-.913l2.79.318a4.44 4.44 0 0 1-1.007 1.96q-.735.83-1.882 1.29-1.146.452-2.624.452m6.305-.252V7.288h2.987v12.864zm1.502-14.688q-.71 0-1.221-.478a1.55 1.55 0 0 1-.512-1.164q0-.687.512-1.164a1.7 1.7 0 0 1 1.221-.486q.719 0 1.221.486.512.477.512 1.164 0 .678-.512 1.164a1.7 1.7 0 0 1-1.221.478m-84.68 34.04c-.146-2.1-.332-4.199-.477-6.318-2.26-.936-3.111-3.243-2.945-5.861l2.074.083c-.083 1.205.062 2.348.684 3.138-.083-1.434-.124-2.889.062-4.323.29-2.39 2.053-4.094 4.438-4.094.228 0 .457.02.685.042 3.214.415 4.915 3.075 4.52 6.193-.393 2.91-2.26 4.427-4.935 5.009-.809.187-1.638.29-2.468.249.124 1.891.29 3.783.415 5.695zm1.493-7.981c.726.062 1.452-.02 2.177-.166 1.825-.416 3.049-1.268 3.298-3.263.27-1.975-.643-3.596-2.717-3.866-1.638-.208-2.613.769-2.8 2.265-.228 1.684-.082 3.346.042 5.03m13.103 3.72c-3.215 0-5.558-2.037-5.558-5.32 0-2.89 1.804-4.78 4.708-4.78.539 0 1.078.062 1.617.166l-.373 2.037a6.3 6.3 0 0 0-1.244-.125c-1.763 0-2.634.977-2.634 2.702 0 2.14 1.43 3.242 3.484 3.242 2.406 0 3.961-1.933 3.961-4.26 0-2.536-1.472-4.573-4.21-4.573a7.7 7.7 0 0 0-1.825.229l-.456-2.037a10.6 10.6 0 0 1 2.281-.27c3.837 0 6.284 2.91 6.284 6.65 0 3.492-2.468 6.34-6.035 6.34m8.361-.126c-1.534 0-2.094-1.434-2.094-2.764 0-2.099 1.078-4.925 2.322-6.609-.331-.582-.746-1.101-1.327-1.496l1.203-1.704a6.2 6.2 0 0 1 1.597 1.683c1.846-1.496 4.127-2.078 6.47-2.078v2.078c-2.343-.041-4.189.54-5.64 1.85.352 1.08.497 2.244.497 3.367 0 1.912-.456 5.673-3.028 5.673m.021-1.787c.892 0 1.1-2.785 1.1-3.43 0-.602-.042-1.225-.146-1.849-.705 1.206-1.306 2.91-1.306 4.302 0 .229 0 .977.352.977m15.513 1.891c-2.24-.29-4.169-1.808-3.858-4.281.353-2.619 2.82-3.47 5.123-3.47 1.265 0 2.488.27 3.691.602-.249-2.182-1.514-3.679-3.754-3.679-1.493 0-3.048.707-4.272 1.476l-1.12-1.746c1.577-.997 3.464-1.808 5.351-1.808 3.733 0 5.91 2.868 5.89 6.464.58.207 1.14.415 1.721.644l-.788 1.933-1.306-.5c-.872 2.495-3.298 4.407-5.973 4.407-.228 0-.477-.02-.705-.042m.27-2.078c1.928.25 3.815-1.185 4.458-2.972-1.14-.333-2.323-.603-3.525-.603-1.286 0-2.821.312-2.987 1.642-.166 1.268.996 1.808 2.053 1.933m9.116 1.828c-.103-3.802-.145-7.626-.31-11.43l2.073-.083c.166 3.803.207 7.607.311 11.43zm.664-12.074c-.705 0-1.265-.54-1.265-1.247 0-.686.56-1.247 1.244-1.247.705 0 1.265.54 1.265 1.247a1.25 1.25 0 0 1-1.244 1.247"/></g></svg>