<svg xmlns="http://www.w3.org/2000/svg" width="20" height="20" fill="none" viewBox="0 0 20 20"><mask id="a" width="20" height="20" x="0" y="0" maskUnits="userSpaceOnUse" style="mask-type:alpha"><path fill="#d9d9d9" d="M0 0h20v20H0z"/></mask><g mask="url(#a)"><path fill="#3a2010" d="M4.423 17.917q-.63 0-1.069-.438a1.45 1.45 0 0 1-.437-1.069V5.256q0-.63.437-1.068a1.45 1.45 0 0 1 1.07-.438h1.153V2.628a.62.62 0 0 1 .183-.457.62.62 0 0 1 .458-.184.62.62 0 0 1 .457.184.62.62 0 0 1 .184.457V3.75h6.314V2.612q0-.266.18-.445.18-.18.445-.18.267 0 .445.18.18.18.18.445V3.75h1.154q.63 0 1.069.438.437.437.437 1.068V16.41q0 .631-.437 1.07a1.45 1.45 0 0 1-1.07.437zm0-1.25h11.154a.25.25 0 0 0 .176-.08.25.25 0 0 0 .08-.177V8.59H4.167v7.82q0 .096.08.177t.176.08M4.167 7.34h11.666V5.256a.24.24 0 0 0-.08-.176.25.25 0 0 0-.176-.08H4.423a.25.25 0 0 0-.176.08.25.25 0 0 0-.08.176z"/></g></svg>