<svg xmlns="http://www.w3.org/2000/svg" width="20" height="20" fill="none" viewBox="0 0 20 20"><mask id="a" width="20" height="20" x="0" y="0" maskUnits="userSpaceOnUse" style="mask-type:alpha"><path fill="#d9d9d9" d="M0 0h20v20H0z"/></mask><g mask="url(#a)"><path fill="#3a2010" d="M16.2 17.083q-2.355 0-4.733-1.095T7.1 12.898q-1.992-1.995-3.087-4.37Q2.917 6.156 2.917 3.8a.86.86 0 0 1 .875-.883H6.51q.315 0 .556.206.242.205.307.508l.478 2.452q.05.341-.02.587a.87.87 0 0 1-.254.412L5.652 8.955q.465.85 1.062 1.61.597.759 1.292 1.45a14.4 14.4 0 0 0 3.127 2.368l1.87-1.886q.195-.204.474-.286.278-.08.578-.04l2.314.472q.315.083.515.322t.2.541v2.702q0 .376-.253.625a.86.86 0 0 1-.63.25M5.06 7.773l1.488-1.424a.15.15 0 0 0 .052-.088.2.2 0 0 0-.004-.104l-.362-1.862a.17.17 0 0 0-.056-.096.16.16 0 0 0-.104-.032H4.292a.11.11 0 0 0-.112.112 10.6 10.6 0 0 0 .88 3.493m7.25 7.201a8.6 8.6 0 0 0 1.73.591q.9.204 1.681.243.048 0 .08-.032a.1.1 0 0 0 .032-.08v-1.754a.16.16 0 0 0-.032-.104.17.17 0 0 0-.096-.056l-1.75-.356a.13.13 0 0 0-.084-.004.2.2 0 0 0-.076.052z"/></g></svg>