<svg xmlns="http://www.w3.org/2000/svg" fill="none" overflow="visible" preserveAspectRatio="none" style="display:block" viewBox="0 0 24 24"><mask id="a" width="24" height="24" x="0" y="0" maskUnits="userSpaceOnUse" style="mask-type:alpha"><path fill="var(--fill-0, #d9d9d9)" d="M0 0h24v24H0z"/></mask><g mask="url(#a)"><path fill="var(--fill-0, #b0b0b0)" d="M3.5 10.096V4.404q0-.383.26-.644a.87.87 0 0 1 .644-.26h5.692q.383 0 .644.26.26.26.26.644v5.692q0 .383-.26.644a.88.88 0 0 1-.644.26H4.404a.87.87 0 0 1-.644-.26.88.88 0 0 1-.26-.644M5 9.5h4.5V5H5zM3.5 19.596v-5.692q0-.384.26-.644a.87.87 0 0 1 .644-.26h5.692q.383 0 .644.26.26.26.26.644v5.692q0 .383-.26.644a.88.88 0 0 1-.644.26H4.404a.87.87 0 0 1-.644-.26.87.87 0 0 1-.26-.644M5 19h4.5v-4.5H5zm8-8.904V4.404q0-.383.26-.644a.88.88 0 0 1 .644-.26h5.692q.383 0 .644.26.26.26.26.644v5.692q0 .383-.26.644a.87.87 0 0 1-.644.26h-5.692a.88.88 0 0 1-.644-.26.88.88 0 0 1-.26-.644m1.5-.596H19V5h-4.5zm4.125 11v-1.875H20.5V20.5zM13 14.875V13h1.875v1.875zm1.875 1.875v-1.875h1.875v1.875zM13 18.625V16.75h1.875v1.875zm1.875 1.875v-1.875h1.875V20.5zm1.875-1.875V16.75h1.875v1.875zm0-3.75V13h1.875v1.875zm1.875 1.875v-1.875H20.5v1.875z"/></g></svg>