<svg xmlns="http://www.w3.org/2000/svg" fill="none" overflow="visible" preserveAspectRatio="none" style="display:block" viewBox="0 0 24 24"><mask id="a" width="24" height="24" x="0" y="0" maskUnits="userSpaceOnUse" style="mask-type:alpha"><path fill="var(--fill-0, #d9d9d9)" d="M0 0h24v24H0z"/></mask><g mask="url(#a)"><path fill="var(--fill-0, #b0b0b0)" d="m8.644 15.923 4.656-1.412a1.84 1.84 0 0 0 .757-.454q.315-.315.454-.757l1.414-4.658a.43.43 0 0 0-.122-.447.43.43 0 0 0-.447-.118L10.7 9.489a1.84 1.84 0 0 0-.757.454q-.315.315-.454.757l-1.414 4.658a.43.43 0 0 0 .122.447q.196.193.447.118m3.354-2.615q-.546 0-.926-.383a1.27 1.27 0 0 1-.38-.927q0-.546.383-.926.381-.38.927-.38t.926.383q.38.381.38.927t-.383.926q-.381.38-.927.38m.004 8.192a9.3 9.3 0 0 1-3.706-.748 9.6 9.6 0 0 1-3.016-2.03 9.6 9.6 0 0 1-2.032-3.016 9.25 9.25 0 0 1-.748-3.704q0-1.972.748-3.706a9.6 9.6 0 0 1 2.03-3.016 9.6 9.6 0 0 1 3.016-2.032 9.25 9.25 0 0 1 3.704-.748q1.971 0 3.706.748a9.6 9.6 0 0 1 3.017 2.03 9.6 9.6 0 0 1 2.03 3.016 9.25 9.25 0 0 1 .749 3.704q0 1.971-.748 3.706a9.6 9.6 0 0 1-2.03 3.017 9.6 9.6 0 0 1-3.016 2.03 9.25 9.25 0 0 1-3.704.749"/></g></svg>