<svg xmlns="http://www.w3.org/2000/svg" fill="none" overflow="visible" preserveAspectRatio="none" style="display:block" viewBox="0 0 24 24"><mask id="a" width="24" height="24" x="0" y="0" maskUnits="userSpaceOnUse" style="mask-type:alpha"><path fill="var(--fill-0, #d9d9d9)" d="M0 0h24v24H0z"/></mask><g mask="url(#a)"><path fill="var(--fill-0, #b0b0b0)" d="M12 17.17a.9.9 0 0 0 .599-.217q.703-.644 1.336-1.257t1.109-1.204q.474-.59.761-1.148t.287-1.082q0-.967-.66-1.605a2.2 2.2 0 0 0-1.583-.638q-.572 0-1.042.234a2.7 2.7 0 0 0-.807.601 2.4 2.4 0 0 0-.808-.601 2.34 2.34 0 0 0-1.019-.234q-.925 0-1.585.637-.66.636-.661 1.602 0 .527.282 1.087t.757 1.15 1.107 1.202q.63.615 1.329 1.251a.85.85 0 0 0 .598.221M6.308 20.5a1.74 1.74 0 0 1-1.277-.531 1.74 1.74 0 0 1-.531-1.277V11.24l-1.27.987a.75.75 0 0 1-.557.152.7.7 0 0 1-.486-.304.737.737 0 0 1 .142-1.044l8.561-6.568a1.87 1.87 0 0 1 2.21 0l8.587 6.568q.248.192.283.486a.77.77 0 0 1-.156.56.73.73 0 0 1-.487.287.7.7 0 0 1-.543-.153l-1.284-.97v7.451q0 .746-.531 1.277a1.74 1.74 0 0 1-1.277.531z"/></g></svg>