<svg xmlns="http://www.w3.org/2000/svg" fill="none" overflow="visible" preserveAspectRatio="none" style="display:block" viewBox="0 0 24 24"><mask id="a" width="24" height="24" x="0" y="0" maskUnits="userSpaceOnUse" style="mask-type:alpha"><path fill="var(--fill-0, #d9d9d9)" d="M0 0h24v24H0z"/></mask><g mask="url(#a)"><path fill="var(--fill-0, #2b619e)" d="M5.25 20.5a.73.73 0 0 1-.534-.216.73.73 0 0 1-.216-.534q0-.32.216-.535A.73.73 0 0 1 5.25 19h13.5q.318 0 .534.216a.73.73 0 0 1 .216.534q0 .32-.216.535a.73.73 0 0 1-.534.215zM17.654 8.25h2q.144 0 .245-.091A.3.3 0 0 0 20 7.933V5.317a.3.3 0 0 0-.101-.226.35.35 0 0 0-.245-.091h-2zm-9.587 8.365a3.46 3.46 0 0 1-2.522-1.03Q4.5 14.553 4.5 13.096v-7.9q0-.705.495-1.2T6.197 3.5h2.862v2.285L7.392 7.138q-.05.05-.2.4v3.635q0 .2.15.35t.35.15h3.616a.48.48 0 0 0 .35-.15q.15-.15.15-.35V7.539q0-.05-.2-.4L9.942 5.784V3.5h9.712a1.8 1.8 0 0 1 1.304.53q.542.53.542 1.287v2.616q0 .758-.542 1.287a1.8 1.8 0 0 1-1.304.53h-2v3.346q0 1.457-1.045 2.489a3.46 3.46 0 0 1-2.523 1.03z"/></g></svg>